<svg xmlns="http://www.w3.org/2000/svg" x="0px" y="0px"
width="30" height="30"
viewBox="0 0 226 226"
style=" fill:#000000;"><g fill="none" fill-rule="nonzero" stroke="none" stroke-width="1" stroke-linecap="butt" stroke-linejoin="miter" stroke-miterlimit="10" stroke-dasharray="" stroke-dashoffset="0" font-family="none" font-weight="none" font-size="none" text-anchor="none" style="mix-blend-mode: normal"><path d="M0,226v-226h226v226z" fill="none"></path><g fill="#ffffff"><path d="M93.40139,18.98047c-4.63972,-0.03783 -9.10102,1.78556 -12.38603,5.06231c-3.28501,3.27675 -5.11963,7.73345 -5.09348,12.37324v5.51758h-22.59966c-8.46907,0.0002 -15.62397,6.28242 -16.71962,14.68032c-1.09564,8.39789 4.20797,16.30553 12.39349,18.4786v108.75319c0,6.42776 2.35663,12.46347 6.47539,16.79499c4.09727,4.34321 9.80081,6.80963 15.77165,6.82024h83.51372c5.97112,-0.01048 11.67498,-2.4769 15.77251,-6.82024c4.11788,-4.33152 6.47453,-10.36723 6.47453,-16.79499v-108.75319c8.18553,-2.17307 13.48914,-10.08071 12.39349,-18.4786c-1.09564,-8.39789 -8.25055,-14.68012 -16.71962,-14.68032h-22.59966v-5.51758c0.02614,-4.6398 -1.80847,-9.09649 -5.09348,-12.37324c-3.28501,-3.27675 -7.74631,-5.10013 -12.38603,-5.06231zM93.39363,27.80859c0.00259,0 0.00517,0 0.00776,0h39.19722c2.29905,-0.04061 4.51651,0.85176 6.14657,2.47353c1.63006,1.62178 2.53371,3.83466 2.50482,6.13389v5.51758h-56.5v-5.51758c-0.02871,-2.29782 0.87392,-4.50941 2.50225,-6.13093c1.62834,-1.62152 3.8437,-2.51486 6.14138,-2.4765zM53.32222,50.76172h119.35556c4.38807,0 7.94531,3.55724 7.94531,7.94531c0,4.38807 -3.55724,7.94531 -7.94531,7.94531h-119.35556c-4.38807,0 -7.94531,-3.55724 -7.94531,-7.94531c0,-4.38807 3.55724,-7.94531 7.94531,-7.94531zM57.82422,75.48047h110.35156v108.36523c0,8.30418 -5.87088,14.78711 -13.41892,14.78711h-83.51372c-7.54805,0 -13.41892,-6.48293 -13.41892,-14.78711zM86.95703,87.26567c-2.43782,0 -4.41406,1.97624 -4.41406,4.41406v83.42578c0,2.43782 1.97624,4.41406 4.41406,4.41406c2.43782,0 4.41406,-1.97624 4.41406,-4.41406v-83.42578c0,-2.43782 -1.97624,-4.41406 -4.41406,-4.41406zM113,87.26567c-2.43782,0 -4.41406,1.97624 -4.41406,4.41406v83.42578c0,2.43782 1.97624,4.41406 4.41406,4.41406c2.43782,0 4.41406,-1.97624 4.41406,-4.41406v-83.42578c0,-2.43782 -1.97624,-4.41406 -4.41406,-4.41406zM139.04297,87.26567c-2.43782,0 -4.41406,1.97624 -4.41406,4.41406v83.42578c0,2.43782 1.97624,4.41406 4.41406,4.41406c2.43782,0 4.41406,-1.97624 4.41406,-4.41406v-83.42578c0,-2.43782 -1.97624,-4.41406 -4.41406,-4.41406z"></path></g></g></svg>